<svg width="600" height="600" viewBox="0 0 600 600" fill="none" xmlns="http://www.w3.org/2000/svg">
<g clip-path="url(#clip0_236_520)">
<path d="M0 0H600V600H0V0ZM351.316 334.058C354.645 333.727 367.216 334.351 369.053 333.697C366.873 329.73 362.186 319.172 360.413 314.836C357.088 320.897 354.489 327.864 351.316 334.058ZM541.327 342.984C541.954 340.459 542.063 330.97 540.908 328.556C540.173 327.018 524.402 327.144 523.834 328.482C522.492 331.649 523.058 339.313 523.324 342.984C525.343 345.63 531.835 344.467 535.028 344.672C536.991 344.801 540.103 344.698 541.327 342.984ZM288.137 345.308C289.299 343.837 288.925 342.103 289.115 340.137C284.306 340.055 276.614 339.788 272.04 340.248C265.712 347.347 284.904 345.34 288.137 345.308ZM336.753 240.352C337.84 237.795 338.153 234.651 339.864 232.541C342.489 230.958 373.928 233.279 379.052 233.88C381.744 236.05 385.614 242.64 386.121 246L386.66 246.578C392.593 245.648 398.666 245.11 404.578 244.022C402.861 240.366 400.869 236.794 398.643 233.42C397.351 231.466 395.104 229.382 394.213 227.46L394.664 227.358C396.475 228.364 399.138 231.216 400.644 232.753C411.349 231.738 420.8 232.818 430.415 237.691C431.455 236.526 432.214 235.496 433.137 234.253C422.801 225.532 382.374 220.499 368.215 219.171C359.815 218.383 349.849 218.495 341.435 218.208C340.579 224.892 337.84 233.096 336.753 240.352ZM121.122 389.933C121.053 392.833 121.056 395.733 121.133 398.634C122.82 398.672 124.508 398.692 126.196 398.704L130.748 398.681C130.666 395.95 130.556 392.815 130.919 390.108C129.081 389.921 127.349 389.687 125.503 389.795L121.122 389.933ZM384.36 389.918C384.357 392.789 384.404 395.807 384.331 398.669L389.792 398.684C390.97 398.698 392.089 398.842 393.108 398.306C394.857 396.519 394.014 392.505 393.935 389.988C392.335 389.856 390.832 389.695 389.221 389.786L384.36 389.918ZM523.005 398.64C526.063 398.719 529.122 398.716 532.181 398.628C532.904 397.371 533.306 390.855 531.489 390.079C529.412 389.191 525.832 389.818 523.397 389.78C522.445 391.594 522.867 396.48 523.005 398.64ZM223.101 190.672C220.169 186.568 213.1 177.342 209.255 174.658C210.85 177.996 218.731 187.638 221.348 191.286L223.101 190.672ZM192.713 204.041L193.984 203.461C191.614 201.209 182.685 194.152 179.902 192.185C177.734 190.296 176.971 189.583 174.508 188.12C176.06 190.083 177.289 191.231 179.313 192.75C181.708 194.829 190.518 202.612 192.713 204.041ZM394.131 174.779C391.866 176.902 370.652 204.166 370.57 205.079L371.007 205.627C373.567 205.238 373.6 204.888 375.202 202.728L388.658 184.205C389.757 182.689 394.154 176.882 394.626 175.64C394.415 174.938 394.6 175.211 394.131 174.779ZM321.187 395.505C318.047 395.517 314.774 395.479 311.646 395.581C311.341 396.542 311.212 396.729 311.423 397.734C313.169 399.545 318.548 398.695 321.211 398.769C321.231 397.661 321.267 396.615 321.187 395.505ZM412.682 180.2C413.042 179.893 414.185 178.623 414.568 178.215C415.427 177.329 416.071 176.804 416.558 175.685L416.309 175.409C415.122 175.836 414.431 176.781 413.531 177.725L411.896 179.406C408.964 182.199 406.849 184.888 404.112 187.743C398.259 193.183 392.915 199.198 387.141 204.728C386.692 205.158 386.405 205.741 386.355 206.361C388.034 207.533 390.056 205.176 391.143 203.96C395.792 198.756 400.661 193.622 405.229 188.357C407.698 185.617 410.229 182.965 412.682 180.2ZM153.754 262.22L154.517 262.516L154.412 262.77L152.616 263.16C154.974 263.245 158.883 262.893 161.3 262.743C162.245 262.884 167.246 262.759 168.056 262.554C162.939 261.79 155.248 261.825 149.983 261.934C151.596 262.222 152.109 262.238 153.754 262.22ZM211.985 273.836C211.553 275.576 211.058 279.705 210.976 281.581C211.652 280.029 212.375 278.506 212.786 276.864C211.795 276.009 212.022 275.101 211.985 273.836ZM429.141 188.464C430.011 187.807 430.898 187.288 431.347 186.316L431.142 185.931C430.125 186.11 429.598 186.843 428.83 187.601C428.391 187.935 427.389 188.645 427.075 189.018C422.774 192.639 418.433 196.215 414.059 199.748C411.621 201.727 405.501 206.361 403.881 208.719C403.91 208.833 403.939 208.947 403.969 209.061C407.215 208.659 412.107 203.547 414.65 201.238C418.816 197.455 423.36 193.779 427.4 189.902L429.141 188.464ZM463.617 389.965C463.617 392.798 463.667 395.801 463.567 398.619C465.612 398.681 467.657 398.704 469.702 398.684C470.895 398.634 472.084 398.613 473.265 398.458L473.165 389.947C470.733 389.713 469.087 389.748 466.623 389.801L463.617 389.965ZM443.077 199.58L438.87 202.19C437.889 202.858 436.831 203.548 435.882 204.251C434.007 205.471 423.709 211.74 423.366 213.132C425.631 213.378 433.811 206.813 436.16 205.159L439.717 202.691C441.029 201.901 442.257 200.877 443.077 199.58ZM238.91 227.029L239.329 226.75C239.082 225.677 230.546 217.683 228.909 216.057L201.72 189.255C200.05 187.613 193.063 180.393 191.599 179.789C191.67 180.091 191.74 180.393 191.811 180.696C194.224 183.332 197.821 187.158 200.143 189.635L227.044 218.225C229.977 221.331 232.74 224.633 235.83 227.57C236.665 228.363 238.088 227.459 238.91 227.029ZM77.0314 398.739L77.6083 398.288C77.7522 396.976 77.7513 396.987 77.533 395.684C76.3228 395.279 70.0775 395.537 68.3021 395.575C67.7259 396.416 67.5217 396.565 67.5826 397.588C69.0677 399.571 74.5512 398.71 77.0314 398.739ZM200.251 395.566C199.772 396.457 199.534 396.694 199.688 397.69C201.233 399.589 206.892 398.713 209.389 398.716C209.822 397.664 209.791 397.702 209.824 396.548C208.594 394.588 202.588 395.537 200.251 395.566ZM167.286 205.647C174.646 210.6 183.108 216.746 190.467 221.379C190.963 220.184 190.557 220.556 191.58 220.08C184.418 215.115 175.647 210.038 168.148 205.121C166.372 204.05 165.526 203.549 163.624 202.746C164.768 203.677 166.095 204.817 167.286 205.647ZM282.057 398.742C282.582 398.08 282.558 397.834 282.746 397.005C282.498 396.401 282.435 395.868 281.704 395.73C279.211 395.265 275.567 395.487 273.005 395.531C272.586 396.478 272.459 396.554 272.545 397.597C274.034 399.642 279.493 398.681 282.057 398.742ZM104.135 395.496C101.058 395.499 97.9813 395.525 94.9049 395.566C94.3963 396.437 94.3333 396.422 94.3066 397.468C95.5796 399.627 101.433 398.698 103.931 398.76C104.461 397.802 104.313 396.633 104.135 395.496ZM549.562 395.572C549.146 396.498 549.032 396.557 549.111 397.585C550.6 399.636 556.075 398.689 558.636 398.754C559.146 398.083 559.131 397.799 559.321 396.976C559.055 396.396 559.034 396.009 558.574 395.862C556.23 395.109 552.108 395.517 549.562 395.572Z" fill="#140403" fill-opacity="0.01"/>
<path d="M303.671 99.4922L304.02 99.6366C308.909 101.713 317.083 106.449 321.976 108.999C331.107 113.722 340.439 118.049 349.942 121.969C398.001 141.787 445.89 149.423 497.484 149.227C504.832 149.199 513.431 149.756 520.696 149.353L497.792 241.08C491.681 235.487 479.921 231.702 471.826 228.484C474.513 217.322 477.264 206.177 480.082 195.048C481.175 190.675 483.261 181.217 484.608 177.313C478.462 177.592 464.285 176.608 457.846 176.105C413.244 172.921 369.545 161.949 328.729 143.686C321.709 140.535 310.644 135.422 304.008 131.514C300.05 133.334 296.3 135.451 292.382 137.365C283.897 141.549 275.264 145.425 266.498 148.983C227.644 164.697 186.49 173.976 144.652 176.455C138.597 176.809 129.043 177.498 123.191 177.265C123.872 180.423 125.183 184.92 125.653 187.854C124.982 189.063 125.041 190.09 124.156 191.102C123.878 190.805 123.604 190.505 123.334 190.201C122.641 189.886 122.491 190.008 121.704 190.113C120.498 191.089 119.861 191.694 118.31 191.675C111.991 191.597 106.318 189.8 100.777 186.894C100.081 186.529 98.0617 185.894 97.5144 185.391C97.3823 185.269 97.3087 184.472 96.7533 183.916L95.7159 184.717C92.9658 173.44 89.9933 160.412 86.8562 149.353C94.6105 149.627 102.183 149.182 109.803 149.223C164.376 149.515 212.26 141.213 262.685 119.81C271.636 115.95 280.429 111.733 289.042 107.169C293.402 104.881 299.341 101.453 303.671 99.4922Z" fill="#42362D"/>
<path d="M149.983 261.935C147.957 261.87 146.432 261.912 144.556 261.082L144.473 260.681C146.038 259.655 150.446 259.137 152.418 258.825C161.634 257.398 170.91 256.381 180.216 255.775C184.751 255.458 197.742 254.961 201.456 253.805C206.294 252.299 215.859 247.244 220.854 244.9C231.971 239.605 243.152 234.445 254.394 229.421C262.21 225.954 271.37 221.82 279.55 219.446C304.377 212.242 331.69 214.996 357.173 214.163C391.049 213.054 423.973 220.919 455.736 232.06C466.617 235.876 480.401 240.637 490.412 245.998C487.89 246.117 485.681 246.043 483.24 245.38C475.869 243.377 450.958 230.395 444.914 232.182L444.788 232.611C445.731 233.605 462.179 240.982 464.713 242.165C458.326 242.369 451.939 242.537 445.553 242.671C433.084 242.928 428.73 242.6 417.015 248.399C419.672 248.381 422.423 248.18 425.259 248.176C425.303 248.446 425.344 248.718 425.382 248.989C425.581 250.388 425.859 252.627 425.142 253.875C419.435 263.821 410.716 272.912 403.881 282.058C402.316 276.598 402.29 269.872 397.356 266.119C391.494 261.658 377.01 263.307 369.929 263.521C352.931 264.197 335.944 265.094 318.97 266.212C319.723 261.057 320.637 257.196 322.351 252.315C324.478 252.576 331.403 251.985 334.028 251.828C350.754 250.824 370.409 250.233 386.66 246.579C392.593 245.649 398.666 245.111 404.578 244.023C402.861 240.367 400.869 236.795 398.643 233.421C397.351 231.467 395.103 229.383 394.213 227.461L394.664 227.359C396.475 228.365 399.138 231.217 400.644 232.754C411.349 231.739 420.8 232.819 430.415 237.692C431.455 236.527 432.214 235.497 433.137 234.254C422.801 225.533 382.374 220.5 368.215 219.172C359.815 218.384 349.849 218.496 341.435 218.209C340.579 224.893 337.84 233.097 336.753 240.353C337.84 237.796 338.153 234.652 339.864 232.542C342.489 230.959 373.928 233.28 379.052 233.881C381.744 236.051 385.614 242.641 386.121 246.001C381.814 246.128 376.333 246.871 371.979 247.322C364.28 248.125 356.572 248.829 348.855 249.434C319.503 251.664 290.064 252.549 260.631 252.088C267.724 244.884 277.719 240.353 287.451 238.045C297.686 235.619 310.638 232.49 321.132 233.088C320.956 236.56 320.593 239.533 320.171 242.981C323.262 236.758 326.101 225.525 329.394 218.595C324.882 219.149 319.582 219.251 314.748 219.728C297.507 221.429 279.876 224.502 263.754 231.038C256.282 234.067 249.234 238.755 242.229 242.269C245.959 242.289 252.931 241.819 253.509 246.804L253.279 247.166C252.456 246.895 252.043 246.287 251.439 245.634C248.978 244.871 239.545 244.52 237.199 245.715C232.977 247.904 228.98 250.779 224.971 253.343C221.549 255.531 217.109 257.603 214.561 260.782C211.596 264.48 211.13 270.362 210.476 274.805C196.135 276.014 184.789 276.578 174.688 287.584C160.101 270.782 135.725 269.587 120.781 287.192C119.836 288.307 118.802 289.474 117.587 290.28L117.244 290.512C106.714 288.6 93.5177 290.647 83.9912 295.378C84.0357 293.017 84.0252 289.6 84.2654 287.275C101.215 288.224 104.968 279.338 118.911 272.922C114.56 273.493 107.79 273.659 103.259 273.767C109.293 270.07 120.46 265.665 127.322 264.791C132.456 264.137 139.302 264.243 144.578 263.621C146.533 263.391 151.24 263.599 152.616 263.161C154.974 263.246 158.883 262.894 161.3 262.744C162.245 262.885 167.246 262.76 168.056 262.555C162.939 261.791 155.248 261.826 149.983 261.935Z" fill="#F47957"/>
<path d="M165.32 423.238C173.301 423.578 181.743 423.203 189.764 423.326C193.561 423.385 197.308 423.18 201.105 423.552C202.523 424.527 203.329 425.38 204.514 426.604C211.12 433.425 218.308 439.932 226.07 445.407C245.169 458.989 266.823 468.558 289.724 473.532C299.083 475.592 301.922 476.506 311.408 474.874C311.651 476.055 311.748 476.102 312.542 477.062C314.338 477.326 314.689 476.541 316.04 477.06C320.411 478.738 325.269 479.512 329.856 480.446L349.418 484.378C351.762 484.844 358.74 486.552 360.586 486.467C363.026 488.412 361.948 487.563 364.471 487.955C349.433 495.555 320.736 503.365 303.656 504.373C299.25 504.634 284.225 501.396 279.526 500.286C241.067 491.216 204.324 470.386 178.336 440.409C173.635 434.989 169.092 429.367 165.32 423.238Z" fill="#36B4D9"/>
<path d="M426.173 248.138L462.548 248.154C476.596 248.159 496.025 247.612 509.244 251.787C507.718 252.942 504.908 254.553 503.168 255.637C497.361 259.254 492.706 262.068 487.793 266.915C494.874 268.567 510.021 268.038 517.685 268.163C517.884 270.513 517.852 277.169 518.332 278.925C519.656 283.783 522.22 288.819 523.96 293.914C515.941 293.905 504.844 295.841 496.219 296.249C490.397 297.019 483.082 297.901 477.305 297.294C475.749 294.939 474.442 291.848 472.963 289.357C461.435 269.81 435.138 264.283 416.59 277.257C412.189 280.334 409.556 284.316 404.171 286.42C403.383 286.727 400.201 289.036 399.094 289.682C400.26 287.912 403.491 284.23 404.962 282.418C408.879 277.588 412.764 272.735 416.625 267.859C419.795 263.852 424.397 258.075 426.753 253.625C426.794 251.548 426.615 250.139 426.173 248.138Z" fill="#F47A4B"/>
<path d="M406.576 423.36L429.091 423.343C433.151 423.343 438.58 423.501 442.479 423.141C425.988 447.677 405.085 466.345 379.195 480.636C376.441 482.153 367.333 487.163 364.471 487.954C361.948 487.562 363.026 488.411 360.586 486.466C358.74 486.551 351.762 484.843 349.418 484.377L329.856 480.445C325.269 479.511 320.411 478.737 316.04 477.059C314.689 476.54 314.338 477.325 312.542 477.062C311.748 476.101 311.651 476.054 311.408 474.873C345.814 468.498 377.188 452.613 401.801 428.051C403.283 426.568 404.98 424.655 406.576 423.36Z" fill="#0F95CA"/>
<path d="M105.562 302.973C109.367 303.277 122.43 303.362 126.101 302.987C126.043 308.926 126.034 314.864 126.075 320.803C126.08 322.865 126.212 328.162 125.999 330.063C126.329 338.384 126.082 348.163 126.072 356.592C120.803 356.22 113.913 356.431 108.53 356.469C108.333 353.062 108.464 348.16 108.458 344.595C108.452 340.147 108.149 333.178 108.664 328.985C108.695 328.01 108.714 327.315 108.653 326.346L108.332 326.252C106.959 328.499 105.752 332.642 104.461 335.261C104.195 336.948 98.6536 349.435 97.6915 350.984C92.2481 350.838 86.8019 350.838 81.3582 350.984C80.2312 349.019 74.6255 337.353 74.5232 335.841C73.3139 333.723 71.8127 327.57 70.4164 326.606L69.9148 327.406C70.2187 330.403 70.0959 334.569 70.0959 337.66L70.083 356.589C64.4826 356.296 58.1563 356.413 52.5069 356.475C52.4287 347.457 52.4261 338.437 52.4993 329.419C52.3089 319.962 52.8017 312.535 51.7505 303.011C59.0226 303.298 66.3365 303.14 73.62 303.181C75.7522 306.562 77.2584 309.998 79.0815 313.52C82.5887 320.287 85.8673 327.559 89.547 334.2C92.2906 327.881 95.7737 321.515 98.9926 315.4C101.131 311.34 103.279 306.887 105.562 302.973Z" fill="#159CCE"/>
<path d="M108.664 328.986C108.982 331.907 108.254 334.896 109.366 337.518C110.75 337.313 110.493 337.093 111.042 336.929C114.688 335.824 121.642 337.063 125.502 337.014C125.59 335.449 125.724 331.421 125.999 330.064C126.33 338.385 126.082 348.164 126.072 356.593C120.803 356.221 113.913 356.432 108.53 356.47C108.333 353.063 108.464 348.161 108.459 344.596C108.452 340.148 108.149 333.179 108.664 328.986Z" fill="#006EB8"/>
<path d="M52.4993 329.419C53.0806 331.599 52.2489 336.614 53.6375 337.804C59.0454 335.521 64.2037 337.443 69.3787 336.69C70.0403 335.105 69.6386 329.653 69.9149 327.406C70.2187 330.403 70.0959 334.569 70.0959 337.66L70.083 356.589C64.4826 356.296 58.1563 356.413 52.507 356.475C52.4287 347.457 52.4261 338.437 52.4993 329.419Z" fill="#006EB8"/>
<path d="M74.5233 335.842L75.0674 336.059C75.3609 336.896 75.5894 337.482 75.9401 338.3L76.4762 338.455C76.674 338.25 77.7791 337.16 77.997 337.143C82.287 336.785 86.637 336.355 90.9389 336.445C94.6579 336.524 99.0032 337.623 102.648 337.201C103.577 336.542 103.324 336.612 103.847 335.373L104.461 335.262C104.195 336.949 98.6537 349.436 97.6916 350.985C92.2482 350.839 86.8019 350.839 81.3583 350.985C80.2312 349.02 74.6256 337.354 74.5233 335.842Z" fill="#0072BA"/>
<path d="M348.727 303.215C355.096 303.218 365.965 302.86 371.956 303.259C376.6 311.406 380.312 320.55 384.768 328.847C385.567 330.332 386.619 332.377 387.24 333.927C387.636 334.396 389.253 337.706 389.646 338.427C392.646 343.949 395.432 351.262 398.628 356.485C393.41 355.999 384.044 356.301 378.56 356.313C377.165 353.146 375.744 349.99 374.291 346.85C364.986 346.788 355.682 346.776 346.377 346.817C344.584 349.832 343.075 353.102 341.54 356.266L321.896 356.307C323.092 354.417 325.008 350.277 326.065 348.159L333.442 333.452L343.345 313.612C344.584 311.131 347.32 305.321 348.727 303.215ZM351.316 334.059C354.645 333.728 367.216 334.352 369.053 333.698C366.873 329.731 362.186 319.173 360.413 314.837C357.088 320.898 354.489 327.865 351.316 334.059Z" fill="#392A20"/>
<path d="M348.727 303.215C355.096 303.218 365.965 302.86 371.956 303.259C376.6 311.406 380.312 320.55 384.768 328.847C385.567 330.332 386.619 332.377 387.24 333.927L386.897 334.589C384.281 333.203 370.825 335.884 369.053 333.698C366.873 329.731 362.186 319.173 360.413 314.837C357.088 320.898 354.489 327.865 351.316 334.059C351.782 334.208 352.21 334.255 352.468 334.53C351.77 334.65 351.322 334.765 350.622 334.601C346.477 333.61 336.604 336.464 333.442 333.452L343.345 313.612C344.584 311.131 347.32 305.321 348.727 303.215Z" fill="#605955"/>
<path d="M506.039 344.74C505.72 331.392 502.336 314.745 520.453 315.941C530.432 316.6 541.474 314.912 551.44 316.691C560.285 318.05 558.721 334.327 558.586 340.574C558.548 342.525 558.466 344.476 558.343 346.421C556.248 360.027 542.288 355.515 532.058 356.335C527.18 356.725 520.778 356.338 515.883 356.001C508.503 355.491 506.684 351.407 506.039 344.74ZM541.327 342.985C541.954 340.459 542.063 330.97 540.908 328.556C540.173 327.018 524.402 327.144 523.834 328.483C522.492 331.65 523.058 339.314 523.324 342.985C525.343 345.63 531.835 344.467 535.028 344.672C536.991 344.801 540.103 344.699 541.327 342.985Z" fill="#504640"/>
<path d="M541.327 342.984C543.003 347.2 555.788 343.737 558.343 346.421C556.248 360.026 542.288 355.515 532.058 356.335C527.18 356.725 520.778 356.338 515.883 356.001C508.503 355.491 506.684 351.407 506.039 344.739C506.271 344.921 506.927 345.407 507.144 345.398C510.431 345.275 521.142 345.592 523.292 343.925L523.324 342.984C525.343 345.63 531.835 344.467 535.028 344.672C536.991 344.801 540.103 344.698 541.327 342.984Z" fill="#35261B"/>
<path d="M95.7158 184.717L96.7532 183.916C97.3087 184.472 97.3822 185.269 97.5144 185.39C98.0616 185.894 100.081 186.529 100.777 186.893C106.318 189.8 111.991 191.596 118.31 191.674C119.861 191.693 120.498 191.089 121.704 190.112C122.491 190.008 122.641 189.886 123.334 190.2C123.604 190.504 123.878 190.805 124.155 191.101C125.041 190.09 124.982 189.062 125.653 187.853C127.298 193.263 129.021 201.211 130.442 206.898C134.118 221.84 137.876 236.761 141.717 251.661C139.777 252.54 137.702 254.402 136.433 254.821C133.484 255.796 129.211 255.602 126.016 256.009C121.672 256.563 118.227 257.739 114.159 259.281C111.288 244.06 106.096 228.216 102.725 212.998C100.668 203.71 98.2163 193.886 95.7158 184.717Z" fill="#5F5A57"/>
<path d="M267.692 316.237L269.353 316.152C277.732 315.757 287.736 315.754 296.165 316.322C301.037 316.653 304.652 320.512 305.335 325.284C305.947 329.594 305.774 334.22 305.751 338.717C305.716 344.655 305.725 350.594 305.78 356.529C300.161 356.444 293.9 357.156 289.071 354.651C280.424 356.06 271.383 357.235 262.638 355.85C255.362 353.418 253.761 349.832 253.962 342.364C254.25 331.644 262.986 330.883 271.44 330.965C277.472 331.023 283.357 331.34 289.383 332.063C288.991 330.654 288.746 329.289 287.901 328.126C285.392 326.708 262.572 328 258.417 328.562C257.844 316.929 254.808 317.348 267.692 316.237ZM288.137 345.309C289.299 343.838 288.925 342.103 289.115 340.138C284.306 340.056 276.614 339.789 272.04 340.249C265.712 347.348 284.904 345.341 288.137 345.309Z" fill="#0280C1"/>
<path d="M470.042 303.63C474.091 303.706 481.222 303.917 485.142 303.562C485.089 307.696 485.156 311.965 485.065 316.058C490.081 315.958 495.097 315.899 500.112 315.882C500.101 319.664 499.986 324.003 500.121 327.738C495.17 327.249 489.563 327.902 484.896 327.472C485.578 331.307 485.024 336.791 484.983 340.729C484.928 346.289 494.206 344.645 498.243 344.555L500.218 355.67C483.067 355.002 465.366 363.85 468.164 337.371C468.475 334.427 467.941 330.741 468.357 327.492C465.897 327.504 463.433 327.565 460.975 327.683C460.963 324.445 461.106 319.178 460.869 316.107C466.403 315.841 468.466 315.835 468.952 309.729C469.081 308.13 469.635 305.235 470.042 303.63Z" fill="#5F5855"/>
<path d="M468.357 327.493C468.87 330.282 468.094 334 468.65 336.385C468.727 335.72 468.8 335.52 469.113 334.929C470.71 333.968 477.267 334.193 479.206 334.293C486.899 334.686 483.838 332.538 484.896 327.473C485.578 331.308 485.024 336.792 484.983 340.729C484.928 346.29 494.206 344.646 498.243 344.556L500.218 355.671C483.067 355.003 465.366 363.851 468.164 337.372C468.475 334.428 467.941 330.742 468.357 327.493Z" fill="#36271C"/>
<path d="M314.13 252.689C315.612 252.548 319.359 252.736 321.064 252.751C319.52 255.953 318.451 262.527 317.807 266.158C313.351 266.847 303.958 267.215 299.147 267.538L265.333 269.98C258.713 270.472 249.413 271.007 242.993 272.011C242.977 269.542 243.68 263.637 243.032 261.782C241.239 260.043 238.139 260.322 237.311 258.094C237.478 255.352 239.288 254.778 241.74 254.678C265.714 253.701 290.218 254.226 314.13 252.689Z" fill="#F47954"/>
<path d="M438.797 316.055C443.297 315.712 449.484 315.879 454.166 315.826L454.113 356.546C448.104 355.781 442.863 357.475 437.42 354.677C429.946 355.734 413.795 358.436 407.247 353.821C404.452 351.853 403.816 347.657 403.462 344.429C404.019 344.317 419.977 344.3 420.636 344.414L421.233 343.983C425.815 345.038 432.275 344.76 437.033 344.458C437.648 335.531 436.767 325.022 437.227 315.973L438.797 316.055Z" fill="#35261B"/>
<path d="M437.227 315.973L438.797 316.055C442.726 316.374 449.719 316.148 453.873 316.143C453.747 320.042 454.23 343.09 453.032 344.581C449.821 345.85 441.431 344.593 437.528 344.244C437.467 338.133 437.44 332.021 437.449 325.91C437.443 323.186 437.578 318.513 437.227 315.973Z" fill="#4E443D"/>
<path d="M234.301 315.052C238.308 314.615 250.385 315.916 252.601 319.514C252.893 321.629 249.662 329.024 248.675 331.619C243.79 329.117 238.546 327.119 233.021 326.782C231.357 326.68 228.544 326.498 227.364 327.904C225.744 329.832 226.516 347.249 226.53 350.902L226.545 356.551C220.868 356.416 215.189 356.39 209.511 356.472C209.151 343.452 209.539 329.223 209.383 316.013C213.546 315.916 217.997 315.896 222.171 316.063C223.601 316.121 225.254 317.478 226.448 317.056C229.557 315.951 231.017 315.365 234.301 315.052Z" fill="#0489C5"/>
<path d="M172.838 303.502C177.681 303.405 183.213 303.906 188.014 303.285C187.846 307.366 188.171 312.104 187.826 316.073C192.758 315.903 198.062 315.968 203.035 315.886C202.96 319.885 202.957 323.887 203.028 327.889C200.792 327.602 189.9 327.385 188.014 327.742L187.832 328.384C187.6 330.813 187.921 333.777 186.903 335.731C185.613 336.15 173.61 337.393 171.797 337.39L171.031 334.255C170.901 332.321 171.031 329.5 171.068 327.496L163.477 327.689C163.42 323.846 163.406 320.002 163.434 316.155C174.567 315.373 170.035 312.464 172.718 303.871L172.838 303.502Z" fill="#139DCF"/>
<path d="M142.17 315.963C146.584 315.781 151.521 316.019 156.08 315.887C155.724 320.7 156.25 355.426 155.668 356.41L154.76 356.513C149.568 356.396 144.374 356.407 139.182 356.542C138.851 346.815 139.364 336.808 139.116 327.046C139.029 323.618 138.996 319.78 139.187 316.37C139.986 315.843 141.155 315.972 142.17 315.963Z" fill="#0281C1"/>
<path d="M187.832 328.383C188.239 333.144 187.744 338.572 188.119 343.632C191.673 345.105 197.08 344.619 201.059 344.528C201.877 348.023 202.276 352.755 203.103 355.658C197.895 355.79 191.123 356.124 185.966 356.464C169.359 357.554 170.396 347.684 171.031 334.254L171.797 337.389C173.61 337.392 185.613 336.149 186.904 335.73C187.921 333.776 187.6 330.812 187.832 328.383Z" fill="#006EB8"/>
<path d="M403.395 316.015C409.066 315.944 414.738 315.918 420.407 315.938C420.325 317.06 420.234 319.571 420.328 320.594C420.814 325.902 419.247 339.921 421.233 343.984L420.636 344.415C419.977 344.301 404.019 344.318 403.462 344.43C403.216 335.219 403.465 325.308 403.395 316.015Z" fill="#4E443E"/>
<path d="M131.309 380.078L135.071 380.172C134.986 387.476 135.07 394.943 135.078 402.259C128.453 401.163 126.812 402.127 120.466 402.01C115.704 401.154 116.646 398.008 116.488 393.959C116.399 391.656 116.67 389.213 118.027 387.288C120.404 385.814 127.693 386.655 130.774 386.758C130.691 384.792 130.282 381.616 131.309 380.078ZM121.122 389.934C121.053 392.834 121.056 395.734 121.133 398.635C122.82 398.673 124.508 398.693 126.196 398.705L130.748 398.682C130.666 395.951 130.556 392.816 130.919 390.109C129.081 389.922 127.349 389.688 125.503 389.796L121.122 389.934Z" fill="#3A2D23"/>
<path d="M383.133 386.528C387.056 386.434 392.385 386.05 396.199 386.894C398.303 387.585 398.54 391.863 398.493 393.606C398.394 397.356 399.202 400.649 395.048 401.906C391.849 402.073 388.62 402.149 385.436 402.102C379.556 402.181 379.412 399.272 379.518 394.251C379.588 390.823 379.239 387.562 383.133 386.528ZM384.36 389.918C384.357 392.789 384.404 395.806 384.331 398.669L389.792 398.683C390.97 398.698 392.089 398.841 393.108 398.305C394.857 396.518 394.014 392.504 393.935 389.988C392.335 389.856 390.832 389.695 389.221 389.786L384.36 389.918Z" fill="#35261B"/>
<path d="M522.179 386.499C524.027 386.467 526.394 386.414 528.117 386.414C534.92 386.388 537.349 385.831 537.193 393.715C537.123 397.201 537.932 400.775 533.736 401.912C530.364 402.073 522.741 402.604 519.902 401.312C518.411 399.677 518.212 396.82 518.3 394.696C518.464 390.724 517.661 387.557 522.179 386.499ZM523.005 398.64C526.063 398.719 529.122 398.716 532.181 398.628C532.904 397.371 533.306 390.856 531.489 390.079C529.412 389.191 525.832 389.818 523.397 389.78C522.445 391.594 522.867 396.481 523.005 398.64Z" fill="#35261B"/>
<path d="M462.647 386.513C466.553 386.428 472.245 385.98 475.793 387.105C478.474 387.957 478.019 398.024 476.991 400.332C476.49 401.457 475.33 401.654 474.281 401.911C470.64 402.04 463.482 402.644 460.377 401.214C458.18 398.832 458.561 390.937 459.905 388.069C460.418 386.973 461.587 386.747 462.647 386.513ZM463.617 389.964C463.617 392.797 463.667 395.8 463.567 398.618C465.612 398.68 467.657 398.703 469.702 398.683C470.894 398.633 472.084 398.613 473.265 398.457L473.165 389.947C470.733 389.712 469.087 389.747 466.623 389.8L463.617 389.964Z" fill="#35261B"/>
<path d="M146.542 296.606C150.559 296.421 153.11 296.89 156.121 299.626C158.313 307.05 156.919 310.835 149.195 312.529C146.23 312.517 143.79 312.517 141.186 310.706C137.751 308.316 136.908 302.723 139.598 299.474C141.478 297.203 143.777 296.864 146.542 296.606Z" fill="#1FAADC"/>
<path d="M551.194 386.549C567.27 384.791 562.922 389.921 563.698 402.205C561.759 401.935 560.452 401.766 558.501 401.71C554.437 401.596 549.226 402.97 545.66 400.881C545.004 399.747 544.438 398.449 544.406 397.116C544.236 389.531 556.775 394.831 559.315 391.717C559.266 390.896 559.189 390.92 558.715 390.223C556.078 388.482 547.529 391.608 545.818 388.813C545.909 387.618 545.716 388.145 546.431 387.176C547.515 386.569 549.838 386.643 551.194 386.549ZM558.636 398.754C559.146 398.083 559.131 397.799 559.321 396.976C559.055 396.395 559.034 396.009 558.574 395.862C556.23 395.109 552.108 395.517 549.562 395.572C549.146 396.498 549.032 396.557 549.111 397.585C550.6 399.636 556.075 398.689 558.636 398.754Z" fill="#35261B"/>
<path d="M96.3832 386.549C100.347 386.382 104.045 386.016 107.794 387.308C109.544 391.055 108.624 397.395 108.935 401.822L108.965 402.206C107.234 401.971 105.71 401.752 103.959 401.711C100.005 401.614 94.8858 402.827 91.2747 401.16C90.5197 400.061 89.5187 398.177 89.5682 396.841C89.8307 389.778 101.747 394.706 104.644 391.811C104.709 387.349 93.997 391.876 90.997 388.993C90.8045 387.906 90.7688 388.442 91.2208 387.343C92.1478 386.605 95.0657 386.623 96.3832 386.549ZM94.9049 395.567C94.3963 396.437 94.3333 396.422 94.3066 397.468C95.5796 399.627 101.433 398.699 103.931 398.76C104.461 397.802 104.313 396.633 104.135 395.497C101.058 395.5 97.9813 395.526 94.9049 395.567Z" fill="#35261B"/>
<path d="M201.77 386.554C217.194 385.162 214.061 389.337 214.081 402.254C212.584 402.002 211.08 401.73 209.561 401.671C205.439 401.519 199.761 403.036 196.159 400.833C195.392 399.459 194.729 397.025 195.307 395.334C197.07 390.181 208.667 395 209.747 391.467C209.356 390.272 209.695 390.72 208.833 389.982C206.272 389.516 199.635 389.952 196.952 390.231L196.108 387.011L201.77 386.554ZM209.389 398.715C209.822 397.663 209.791 397.701 209.824 396.547C208.594 394.587 202.588 395.536 200.251 395.566C199.772 396.456 199.534 396.694 199.688 397.69C201.233 399.588 206.892 398.712 209.389 398.715Z" fill="#35261B"/>
<path d="M69.849 386.549C85.069 384.698 82.103 389.998 82.0672 402.25L80.4231 401.995C74.7966 401.107 67.7522 403.237 64.0289 400.744C63.5235 399.795 63.5783 399.674 63.29 398.711C60.4945 389.365 75.8554 394.351 77.7251 392.353C77.7213 391.316 77.7506 391.383 77.2166 390.496C75.3442 389.081 67.625 390.004 64.8829 390.214L64.1188 387.039C65.9759 386.831 67.9754 386.705 69.849 386.549ZM77.0314 398.74L77.6083 398.289C77.7521 396.976 77.7512 396.988 77.533 395.684C76.3227 395.28 70.0775 395.538 68.3021 395.576C67.7258 396.417 67.5216 396.566 67.5826 397.588C69.0676 399.572 74.5511 398.711 77.0314 398.74Z" fill="#35261B"/>
<path d="M274.664 386.551C290.275 384.395 286.456 390.591 286.917 402.207C285.341 401.973 283.909 401.747 282.311 401.692C278.202 401.551 272.645 402.986 269.007 400.95C268.515 399.998 268.351 399.57 268.102 398.533C265.845 389.132 280.001 394.783 282.382 391.947C282.39 390.966 282.432 391.019 282.001 390.146C279.05 388.546 270.374 391.681 269.178 388.807C269.702 386.027 272.193 386.73 274.664 386.551ZM282.057 398.741C282.582 398.079 282.558 397.833 282.746 397.004C282.498 396.401 282.435 395.867 281.704 395.73C279.211 395.264 275.567 395.486 273.005 395.53C272.586 396.477 272.459 396.553 272.545 397.596C274.034 399.641 279.493 398.68 282.057 398.741Z" fill="#35261B"/>
<path d="M313.392 386.551C314.622 386.384 316.207 386.548 317.423 386.387C328.878 384.872 324.902 393.855 325.714 402.196C324.047 401.982 322.808 401.783 321.12 401.695C316.799 401.469 311.42 403.133 307.667 400.743C307.049 399.591 306.448 397.889 306.571 396.582C307.204 389.747 318.785 394.661 321.586 391.907C321.53 390.975 321.36 390.911 320.789 390.166C317.394 388.315 306.668 392.698 308.23 387.351C309.363 386.528 311.769 386.651 313.392 386.551ZM311.646 395.58C311.341 396.541 311.212 396.729 311.423 397.734C313.169 399.544 318.548 398.695 321.211 398.768C321.231 397.661 321.267 396.615 321.188 395.504C318.047 395.516 314.774 395.478 311.646 395.58Z" fill="#35261B"/>
<path d="M211.985 273.835C213.888 263.747 215.979 255.175 228.236 255.055L226.013 259.087C226.85 264.293 227.215 268.026 227.081 273.314C224.931 273.399 214.932 273.812 213.707 274.782C213.378 275.495 213.087 276.136 212.786 276.864C211.795 276.008 212.022 275.101 211.985 273.835Z" fill="#F47954"/>
<path d="M170.164 380.156C171.632 380.191 173.155 380.174 174.628 380.18C174.552 384.46 174.581 388.74 174.714 393.018C177.263 391.38 179.387 388.573 181.824 386.446C183.693 386.435 185.563 386.408 187.433 386.367C185.412 389.022 182.917 391.254 180.446 393.472C182.683 395.194 185.218 397.787 187.608 398.994C188.885 399.437 188.65 399.135 189.166 400.058C189.168 400.488 189.288 400.963 188.965 401.285C184.079 406.178 178.806 395.224 175.379 395.979C174.109 397.447 174.576 400.181 174.664 402.185C173.228 402.085 171.695 402.135 170.249 402.149C170.196 394.843 170.328 387.445 170.164 380.156Z" fill="#392B21"/>
<path d="M225.674 386.528C229.675 386.329 236.174 386.235 239.972 387.044C239.813 387.987 239.751 389.089 239.672 390.056C236.686 390.026 229.648 389.294 227.024 390.108C226.354 390.888 226.522 390.451 226.484 391.462C228.485 394.368 239.324 389.9 240.481 395.124C241.298 398.815 240.779 401.203 236.925 401.953C234.231 402.035 223.426 402.773 222.06 400.802L222.297 399.773C224.951 396.337 235.228 401.279 236.132 397.055C235.991 396.686 235.66 395.804 235.093 395.786C229.296 395.599 218.062 397.846 222.909 387.829C223.353 386.909 224.65 386.713 225.674 386.528Z" fill="#37291F"/>
<path d="M406.544 379.723C407.979 379.682 409.491 379.717 410.93 379.723C410.789 382.031 410.81 384.765 410.771 387.108C411.741 386.971 412.714 386.862 413.692 386.78C428.628 385.439 424.204 389.581 424.951 402.155C423.568 402.073 421.854 402.152 420.442 402.182L420.428 393.384L420.404 389.947C417.811 389.646 413.502 389.769 410.757 389.78C410.769 393.621 410.672 398.385 410.977 402.135C409.561 402.067 407.892 402.152 406.456 402.191L406.386 387.346C406.377 385.439 406.251 381.486 406.544 379.723Z" fill="#3B2E24"/>
<path d="M333.987 386.365L338.314 386.359L338.405 398.611C341.405 398.711 344.408 398.761 347.411 398.764C347.033 395.151 347.253 390.209 347.144 386.377C348.7 386.409 350.323 386.395 351.888 386.403L351.817 390.104C351.791 394.141 351.826 398.175 351.923 402.212C333.565 399.892 333.896 408.429 333.987 386.365Z" fill="#35261B"/>
<path d="M143.952 386.385L148.317 386.355C148.236 390.363 148.369 394.605 148.437 398.631C151.408 398.71 154.38 398.754 157.353 398.763C157.128 394.617 157.454 390.492 157.107 386.382C158.694 386.411 160.336 386.394 161.928 386.394C161.855 387.545 161.831 388.758 161.789 389.918C161.8 393.926 161.742 398.227 161.938 402.205C160.623 402.029 157.868 401.596 156.623 401.716C140.732 403.236 144.464 400.749 143.952 386.385Z" fill="#35261B"/>
<path d="M446.417 386.429L451.075 386.411L451.052 389.282L451.087 402.246C449.344 401.979 447.721 401.807 446.112 401.695C443.912 401.543 435.732 402.58 434.581 401.458C432.592 399.519 433.304 389.607 433.172 386.391L437.599 386.396C437.443 390.135 437.637 394.705 437.587 398.599C440.191 398.798 443.871 398.716 446.558 398.733C446.303 395.417 446.437 389.903 446.417 386.429Z" fill="#35261B"/>
<path d="M302.303 188.374C301.98 177.466 302.95 166.198 303.026 155.268C303.038 153.631 302.98 142.187 303.363 141.562C303.847 141.722 303.879 141.611 304.078 141.998C304.491 142.806 305.52 184.943 305.209 189.075C305.44 194.377 305.78 199.869 305.663 205.18C305.634 206.484 303.217 206.647 302.273 206.341C301.661 204.954 302.127 190.721 302.303 188.374Z" fill="#0299D7"/>
<path d="M302.303 188.373C302.599 191.25 302.81 199.905 302.795 203.131C303.032 202.702 303.313 202.206 303.609 201.818C306.19 198.436 303.92 192.682 305.209 189.074C305.44 194.376 305.78 199.868 305.663 205.18C305.634 206.483 303.217 206.646 302.273 206.34C301.661 204.953 302.127 190.72 302.303 188.373Z" fill="#006EB8"/>
<path d="M285.281 149.82C285.988 150.107 285.742 149.979 286.325 150.517C287.613 156.405 288.825 167.323 289.782 173.642L293.206 196.51C293.511 198.577 294.724 205.669 294.545 207.246C293.397 207.541 292.418 207.976 291.332 207.618C290.729 206.289 288.435 184.128 288.276 181.026C288.004 175.742 284.487 153.236 285.281 149.82Z" fill="#0299D7"/>
<path d="M36.9797 381.723H41.62C41.4905 387.292 41.7202 392.853 41.5157 398.469C46.2747 398.434 51.034 398.448 55.793 398.513C56.2641 399.647 57.0308 400.877 56.4694 401.955L36.4702 402.151C37.222 396.623 36.9794 387.579 36.9797 381.723Z" fill="#37291D"/>
<path d="M226.993 171.344C228.588 172.308 230.104 174.982 231.144 176.581C239.664 189.661 248.181 202.749 256.768 215.784C257.294 216.582 257.727 217.293 257.809 218.26L257.428 218.703C256.493 219.151 255.259 219.989 254.506 218.901C253.251 217.09 252.146 215.201 251.02 213.31L244.377 202.132L233.618 184.026C231.638 180.711 229.6 177.358 227.682 174.006C226.948 172.722 226.908 172.604 226.993 171.344Z" fill="#1FAADC"/>
<path d="M191.599 179.789C193.063 180.393 200.05 187.613 201.72 189.255L228.909 216.057C230.546 217.682 239.082 225.677 239.329 226.75L238.91 227.029C238.088 227.459 236.665 228.363 235.83 227.57C232.74 224.633 229.977 221.33 227.044 218.224L200.143 189.635C197.821 187.158 194.224 183.332 191.811 180.695C191.74 180.393 191.67 180.091 191.599 179.789Z" fill="#1FAADC" fill-opacity="0.988235"/>
<path d="M501.937 381.734C505.532 382.194 504.85 383.234 504.835 386.539C506.399 386.504 514.761 385.514 511.233 389.492C510.182 389.885 510.076 389.937 508.972 389.899L504.77 389.762L504.82 398.639C506.186 398.668 510.343 398.51 511.143 399.105C511.315 400.139 511.57 400.845 511.157 401.776C497.903 402.588 500.842 401.34 499.986 390.23C499.939 389.609 498.164 389.841 497.479 389.044C497.728 386.803 500.112 385.625 500.786 383.574C501.079 382.675 501.311 382.396 501.937 381.734Z" fill="#392C23"/>
<path d="M363.492 381.773C364.485 381.929 364.693 381.864 365.487 382.477C366.217 383.613 366.132 385.128 366.22 386.546C368.473 386.414 370.878 386.517 373.146 386.569L372.967 389.818C370.573 389.73 368.505 389.88 366.003 389.71L366.079 398.678C368.039 398.687 370.726 398.59 372.56 398.991C372.58 399.987 372.788 401.092 372.331 401.798C372.097 401.833 371.862 401.865 371.628 401.892C369.264 402.164 364.075 402.252 362.209 400.752C360.844 397.553 361.731 394.359 361.389 391.008C361.181 388.986 360.094 390.466 358.796 389.159C358.837 388.034 362.634 382.397 363.492 381.773Z" fill="#35261B"/>
<path d="M251.78 381.629C252.712 381.84 253.116 381.84 253.817 382.49C254.477 383.609 254.306 385.086 254.314 386.457C256.764 386.451 261.01 385.435 261.695 388.186C260.979 390.837 256.668 389.814 254.261 389.724C254.296 392.7 254.367 395.677 254.473 398.653C256.653 398.668 258.803 398.618 260.954 398.976C261.053 400.068 261.129 400.37 260.901 401.472C259.419 402.43 253.366 402.102 251.737 401.416C248.572 400.08 250.796 392.791 249.657 390.134C248.54 389.656 247.996 389.896 247.3 389.018C247.379 387.884 251.107 382.218 251.78 381.629Z" fill="#35261B"/>
<path d="M241.828 166.842L242.713 167.232C244.543 169.469 266.738 213.383 266.809 214.569L266.259 215.047C265.392 215.497 264.77 215.99 263.861 215.63C262.37 213.199 260.657 209.17 259.413 206.451L252.468 191.196C250.86 187.667 241.768 168.697 241.828 166.842Z" fill="#1FAADC"/>
<path d="M319.392 148.953C319.816 149.288 319.696 149.213 319.995 149.7C319.893 155.111 319.131 161.689 318.647 167.153L316.4 192.926C316.228 194.844 315.56 204.616 315.205 205.574C314.388 206.095 313.395 205.972 312.378 205.993L312.091 205.522C311.9 202.584 314.092 187.295 314.587 183.426L317.309 161.996C317.71 158.759 318.164 151.613 319.392 148.953Z" fill="#0299D7"/>
<path d="M334.046 155.375L334.682 155.587C334.749 155.775 334.863 155.952 334.884 156.15C335.042 157.634 326.279 202.112 325.14 205.258C324.39 205.869 323.569 205.731 322.55 205.753C322.301 205.633 322.195 205.454 321.984 205.225C321.861 204.162 333.035 157.036 334.046 155.375Z" fill="#0299D7"/>
<path d="M348.422 160.98C349.922 161.683 348.592 164.149 348.117 165.657C345.24 174.817 342.419 184.129 339.516 193.267C338.602 196.138 336.85 202.895 335.531 205.062C334.638 205.649 333.902 205.55 332.815 205.593C332.851 205.626 332.3 205.223 332.376 204.993C336.943 191.081 342.302 177.122 347.209 163.271C347.59 162.197 348.044 161.515 348.422 160.98Z" fill="#0299D7"/>
<path d="M223.101 190.672C225.343 192.804 233.081 202.471 235.341 205.365C238.532 209.451 246.65 218.524 249.067 222.413L245.752 223.844C238.053 213.093 229.356 201.886 221.348 191.287L223.101 190.672Z" fill="#1FAADC"/>
<path d="M193.984 203.461C196.812 205.507 199.687 207.776 202.393 209.992C211.157 217.171 220.46 223.923 229.084 231.252C228.191 231.899 227.328 232.547 226.388 233.126L205.09 214.833C201.405 211.682 196.052 207.362 192.713 204.041L193.984 203.461Z" fill="#1FAADC"/>
<path d="M262.016 180.059L262.241 179.726C262.2 178.236 261.669 177.393 261.125 175.977L261.811 175.867C262.497 176.425 263.372 179.22 263.827 180.363L264.184 179.916C264.889 181.377 265.386 183.053 265.997 184.569C269.589 193.465 272.638 202.656 276.24 211.538L272.738 212.533C270.299 205.357 267.896 198.169 265.532 190.968C264.647 188.294 262.55 182.491 262.016 180.059Z" fill="#0299D7"/>
<path d="M362.669 165.934C363.217 166.156 363.026 166.071 363.472 166.524C363.39 168.371 348.876 200.691 347.021 204.845C346.731 205.49 345.354 205.655 344.593 205.797C344.01 205.377 344.051 205.407 343.737 204.756C344.625 202.113 348.847 194.008 350.238 191.101C352.863 185.549 355.529 180.018 358.239 174.507C359.42 172.105 361.269 168.082 362.669 165.934Z" fill="#0299D7"/>
<path d="M485.654 380.236L490.702 380.113C490.274 385.521 490.5 395.887 490.597 401.588L490.459 401.828C489.674 402.338 487.137 402.101 486.032 402.074C486.023 396.886 486.287 384.856 485.654 380.236Z" fill="#35261B"/>
<path d="M277.084 177.307C279.836 187.662 282.439 198.551 285.294 208.782L281.994 210.038C280.718 205.541 279.759 200.382 278.765 195.764C277.684 190.742 276.423 185.434 275.555 180.396L275.895 180.145C275.649 178.72 276.305 178.257 277.084 177.307Z" fill="#0299D7"/>
<path d="M377.452 170.973L378.217 171.111L378.363 171.596C377.783 173.785 362.232 199.693 360.208 203.613C359.481 205.018 358.588 205.448 357.097 205.725C356.745 205.576 356.552 205.43 356.227 205.227C356.291 203.825 375.202 174.001 377.452 170.973Z" fill="#0299D7"/>
<path d="M394.131 174.779C394.6 175.211 394.415 174.938 394.626 175.64C394.154 176.882 389.757 182.689 388.658 184.205L375.202 202.728C373.6 204.888 373.567 205.238 371.007 205.627L370.57 205.079C370.652 204.166 391.866 176.902 394.131 174.779Z" fill="#0299D7" fill-opacity="0.988235"/>
<path d="M190.467 221.379C190.963 220.185 190.557 220.556 191.58 220.08C195.975 222.538 201.165 226.062 205.512 228.771C208.93 230.901 214.382 234.115 217.514 236.422C217.209 237.385 216.043 237.718 215.135 238.098C212.374 236.691 208.127 233.595 205.403 231.718C200.401 228.305 195.423 224.858 190.467 221.379Z" fill="#1FAADC"/>
<path d="M181.708 233.207L185.449 233.209C190.787 235.856 198.292 239.157 203.587 242.21C204.197 242.561 204.139 242.994 204.15 243.422C203.924 243.566 203.8 243.669 203.511 243.721C200.316 244.294 185.652 235.36 181.708 233.207Z" fill="#1FAADC"/>
<path d="M404.112 187.742L405.229 188.357C400.661 193.622 395.792 198.756 391.143 203.96C390.056 205.175 388.034 207.532 386.355 206.361C386.405 205.741 386.692 205.157 387.141 204.728C392.915 199.198 398.259 193.183 404.112 187.742Z" fill="#0299D7" fill-opacity="0.984314"/>
<path d="M427.075 189.02L427.4 189.903C423.36 193.78 418.816 197.456 414.65 201.239C412.107 203.548 407.215 208.66 403.969 209.062C403.939 208.948 403.91 208.834 403.881 208.721C405.501 206.362 411.621 201.729 414.059 199.749C418.433 196.216 422.774 192.64 427.075 189.02Z" fill="#0299D7" fill-opacity="0.964706"/>
<path d="M275.555 180.397C275.488 180.267 275.421 180.137 275.355 180.007C273.681 172.895 272.379 165.695 270.668 158.592C270.492 157.863 270.63 157.249 270.854 156.626L271.222 156.602C272.561 158.397 276.152 173.897 277.084 177.307C276.305 178.258 275.649 178.721 275.895 180.145L275.555 180.397Z" fill="#1FAADC"/>
<path d="M155.47 218.809C158.374 219.782 161.385 221.338 164.11 222.759C171.069 226.387 178.555 229.501 185.449 233.207L181.708 233.205L168.703 226.29C164.747 224.232 158.935 221.436 155.47 218.809Z" fill="#1FAADC"/>
<path d="M150.711 236.207C152.498 236.377 178.882 245.931 180.148 246.905C176.374 247.715 167.05 243.082 163.092 241.717C160.917 240.967 151.943 237.533 150.711 236.207Z" fill="#1FAADC"/>
<path d="M167.286 205.647L168.148 205.121C175.647 210.039 184.418 215.116 191.58 220.08C190.557 220.557 190.963 220.185 190.467 221.38C183.108 216.747 174.646 210.601 167.286 205.647Z" fill="#1FAADC" fill-opacity="0.976471"/>
<path d="M259.411 172.669C258.816 170.516 256.076 163.62 256.364 162.133L256.859 162.231C258.659 163.977 260.026 168.799 260.974 171.394C261.93 173.85 263.411 177.461 264.184 179.915L263.827 180.361C263.372 179.218 262.497 176.424 261.811 175.866L261.124 175.976C261.669 177.392 262.2 178.235 262.241 179.724L262.016 180.058C261.221 178.199 260.202 174.771 259.411 172.669Z" fill="#1FAADC"/>
<path d="M209.255 174.658C213.1 177.342 220.169 186.569 223.101 190.672L221.348 191.287C218.731 187.639 210.85 177.997 209.255 174.658Z" fill="#1FAADC" fill-opacity="0.988235"/>
<path d="M179.902 192.184C182.685 194.151 191.614 201.208 193.984 203.46L192.713 204.04C190.518 202.612 181.708 194.829 179.313 192.749L179.902 192.184Z" fill="#1FAADC" fill-opacity="0.972549"/>
<path d="M436.16 205.157C433.811 206.812 425.631 213.377 423.366 213.13C423.709 211.738 434.007 205.469 435.882 204.25L436.16 205.157Z" fill="#0299D7" fill-opacity="0.952941"/>
<path d="M411.896 179.406C412.45 179.825 412.354 179.648 412.682 180.2C410.229 182.966 407.698 185.618 405.229 188.358L404.112 187.743C406.849 184.889 408.964 182.2 411.896 179.406Z" fill="#0299D7" fill-opacity="0.960784"/>
<path d="M149.983 261.934C155.248 261.824 162.939 261.79 168.056 262.554C167.246 262.759 162.245 262.884 161.299 262.743L161.112 262.38C158.892 262.044 156.047 262.184 153.754 262.219C152.109 262.238 151.596 262.221 149.983 261.934Z" fill="#F47954" fill-opacity="0.694118"/>
<path d="M153.754 262.219C156.047 262.184 158.892 262.044 161.112 262.38L161.3 262.743C158.883 262.893 154.974 263.245 152.616 263.159L154.412 262.77L154.517 262.516L153.754 262.219Z" fill="#F47954" fill-opacity="0.2"/>
<path d="M210.976 281.581C211.058 279.705 211.553 275.576 211.985 273.836C212.022 275.102 211.795 276.009 212.786 276.864C212.375 278.506 211.652 280.029 210.976 281.581Z" fill="#FE7137" fill-opacity="0.952941"/>
<path d="M174.508 188.121C176.971 189.584 177.734 190.297 179.902 192.186L179.313 192.751C177.289 191.232 176.06 190.085 174.508 188.121Z" fill="#1FAADC" fill-opacity="0.835294"/>
<path d="M413.531 177.725C414.431 176.782 415.122 175.837 416.309 175.41L416.558 175.686C416.071 176.804 415.427 177.33 414.568 178.215C414.12 177.913 414.044 177.925 413.531 177.725Z" fill="#0299D7" fill-opacity="0.72549"/>
<path d="M438.87 202.191L439.717 202.692L436.16 205.16L435.882 204.253C436.831 203.55 437.889 202.859 438.87 202.191Z" fill="#0299D7" fill-opacity="0.854902"/>
<path d="M428.83 187.602C429.598 186.844 430.125 186.11 431.142 185.932L431.347 186.316C430.898 187.288 430.011 187.808 429.141 188.464L428.83 187.602Z" fill="#1FAADC" fill-opacity="0.505882"/>
<path d="M163.624 202.746C165.526 203.549 166.372 204.05 168.148 205.121L167.286 205.647C166.095 204.817 164.768 203.677 163.624 202.746Z" fill="#1FAADC" fill-opacity="0.827451"/>
<path d="M413.531 177.725C414.044 177.924 414.12 177.912 414.568 178.215C414.185 178.623 413.042 179.893 412.682 180.2C412.354 179.647 412.45 179.825 411.896 179.406L413.531 177.725Z" fill="#0299D7" fill-opacity="0.835294"/>
<path d="M443.077 199.58C442.257 200.877 441.029 201.901 439.717 202.691L438.87 202.19L443.077 199.58Z" fill="#1FAADC" fill-opacity="0.560784"/>
<path d="M428.83 187.602L429.141 188.464L427.4 189.902L427.075 189.019C427.389 188.645 428.391 187.935 428.83 187.602Z" fill="#0299D7" fill-opacity="0.792157"/>
</g>
<defs>
<clipPath id="clip0_236_520">
<rect width="600" height="600" fill="white"/>
</clipPath>
</defs>
</svg>
