<svg width="512" height="512" viewBox="0 0 512 512" fill="none" xmlns="http://www.w3.org/2000/svg">
  <rect width="512" height="512" rx="120" fill="#0F1720"/>

  <path
    d="M256 66L414 126L382 276C364 345 319 401 256 440C193 401 148 345 130 276L98 126L256 66Z"
    fill="#4E3E31"
  />
  <path
    d="M256 96L386 145L359 270C344 326 308 372 256 406C204 372 168 326 153 270L126 145L256 96Z"
    fill="#111B24"
  />

  <path
    d="M172 208C194 184 225 170 273 167C314 164 347 173 374 192L394 204L361 208C352 224 337 231 313 231H212C200 231 191 227 184 219L145 223L172 208Z"
    fill="#FF7D4E"
  />
  <path
    d="M206 183C226 174 248 169 274 167C295 166 314 168 331 173L319 196H212L206 183Z"
    fill="#FF9368"
  />
  <path
    d="M255 168L247 196H260L268 168H255Z"
    fill="#4E3E31"
  />
  <path
    d="M224 188H297L314 196H214L224 188Z"
    fill="#0F1720"
    fill-opacity="0.2"
  />

  <path
    d="M166 161L183 197"
    stroke="#2DA8DD"
    stroke-width="8"
    stroke-linecap="round"
  />
  <path
    d="M194 145L208 190"
    stroke="#2DA8DD"
    stroke-width="8"
    stroke-linecap="round"
  />
  <path
    d="M224 134L232 188"
    stroke="#2DA8DD"
    stroke-width="8"
    stroke-linecap="round"
  />
  <path
    d="M256 130V186"
    stroke="#2DA8DD"
    stroke-width="8"
    stroke-linecap="round"
  />
  <path
    d="M288 134L280 188"
    stroke="#2DA8DD"
    stroke-width="8"
    stroke-linecap="round"
  />
  <path
    d="M318 145L304 190"
    stroke="#2DA8DD"
    stroke-width="8"
    stroke-linecap="round"
  />
  <path
    d="M346 161L329 197"
    stroke="#2DA8DD"
    stroke-width="8"
    stroke-linecap="round"
  />

  <path
    d="M164 362C191 392 223 407 256 407C289 407 321 392 348 362H164Z"
    fill="#2DA8DD"
  />

  <path
    d="M130 299C154 322 182 334 216 334H296C330 334 358 322 382 299"
    stroke="#FF7D4E"
    stroke-width="14"
    stroke-linecap="round"
  />

  <path
    d="M127 299H385"
    stroke="#2DA8DD"
    stroke-width="8"
    stroke-linecap="round"
    opacity="0.35"
  />
</svg>
